/* XPM */
static char * dash64_xpm[] = {
"64 64 97 2",
"  	c None",
". 	c #008CE4",
"+ 	c #008CE3",
"@ 	c #008BE3",
"# 	c #008DE3",
"$ 	c #45ABEB",
"% 	c #CCE8F9",
"& 	c #BBE0F8",
"* 	c #A7D7F5",
"= 	c #95CFF3",
"- 	c #6ABCEF",
"; 	c #2DA0E8",
"> 	c #80C6F1",
", 	c #FFFFFF",
"' 	c #D7EDFB",
") 	c #64B9EE",
"! 	c #038DE3",
"~ 	c #ADDAF6",
"{ 	c #C6E5F9",
"] 	c #1997E6",
"^ 	c #DBEFFB",
"/ 	c #D9EEFB",
"( 	c #1093E5",
"_ 	c #0B91E4",
": 	c #FDFEFF",
"< 	c #9FD4F4",
"[ 	c #32A3E8",
"} 	c #EEF7FD",
"| 	c #F2F9FE",
"1 	c #209AE7",
"2 	c #028DE3",
"3 	c #239CE7",
"4 	c #5BB5ED",
"5 	c #BAE0F7",
"6 	c #71BFEF",
"7 	c #5EB6ED",
"8 	c #FCFEFF",
"9 	c #A1D5F5",
"0 	c #93CEF3",
"a 	c #CDE8FA",
"b 	c #33A3E9",
"c 	c #D6EDFA",
"d 	c #1194E5",
"e 	c #8ACAF2",
"f 	c #CEE9FA",
"g 	c #DDF0FB",
"h 	c #048EE3",
"i 	c #078FE4",
"j 	c #CFE9FA",
"k 	c #CAE7F9",
"l 	c #C5E5F9",
"m 	c #1F9AE6",
"n 	c #B1DCF6",
"o 	c #55B2EC",
"p 	c #89CAF2",
"q 	c #4AADEB",
"r 	c #8ECCF3",
"s 	c #3AA6E9",
"t 	c #7DC4F1",
"u 	c #69BBEF",
"v 	c #DCEFFB",
"w 	c #AEDAF6",
"x 	c #C0E3F8",
"y 	c #30A2E8",
"z 	c #DAEEFB",
"A 	c #C2E3F8",
"B 	c #75C1F0",
"C 	c #0890E4",
"D 	c #F8FCFE",
"E 	c #EFF8FD",
"F 	c #6CBDEF",
"G 	c #A3D6F5",
"H 	c #DEF0FB",
"I 	c #4EAFEC",
"J 	c #A0D4F5",
"K 	c #1B98E6",
"L 	c #66BAEE",
"M 	c #068FE4",
"N 	c #269DE7",
"O 	c #57B3ED",
"P 	c #A5D6F5",
"Q 	c #F6FBFE",
"R 	c #D1EAFA",
"S 	c #2B9FE8",
"T 	c #F7FBFE",
"U 	c #5AB5ED",
"V 	c #56B3EC",
"W 	c #88C9F2",
"X 	c #B6DEF7",
"Y 	c #2EA1E8",
"Z 	c #E4F3FC",
"` 	c #C9E7F9",
" .	c #ABD9F6",
"..	c #8BCBF2",
"+.	c #60B7EE",
"@.	c #1E9AE6",
"#.	c #008DE2",
"          . . + + + + + + + + + + + + + + + + + + + + + + + + + + + + + + + + + + + + + + + + + + + + + + + + + + @ +           ",
"      + + + + + + + + + + + + + + + + + + + + + + + + + + + + + + + + + + + + + + + + + + + + + + + + + + + + + + + + + +       ",
"    + + + + + + + + + + + + + + + + + + + + + + + + + + + + + + + + + + + + + + + + + + + + + + + + + + + + + + + + + + + +     ",
"  + + + + + + + + + + + + + + + + + + + + + + + + + + + + + + + + + + + + + + + + + + + + + + + + + + + + + + + + + + + + + +   ",
"  + + + + + + + + + + + + + + + + + + + + + + + + + + + + + + + + + + + + + + + + + + + + + + + + + + + + + + + + + + + + + +   ",
"@ + + + + + + + + + + + + + + + + + + + + + + + + + + + + + + + + + + + + + + + + + + + + + + + + + + + + + + + + + + + + + + # ",
"+ + + + + + + + + + + + + + + + + + + + + + + + + + + + + + + + + + + + + + + + + + + + + + + + + + + + + + + + + + + + + + + + ",
"+ + + + + + + + + + + + + + + + + + + + + + + + + + + + + + + + + + + + + + + + + + + + + + + + + + + + + + + + + + + + + + + + ",
"+ + + + + + + + + + + + + + + + + + + + + + + + + + + + + + + + + + + + + + + + + + + + + + + + + + + + + + + + + + + + + + + + ",
"+ + + + + + + + + + + + + + + + + + + + + + + + + + + + + + + + + + + + + + + + + + + + + + + + + + + + + + + + + + + + + + + + ",
"+ + + + + + + + + + + + + + + + + + + + + + + + + + + + + + + + + + + + + + + + + + + + + + + + + + + + + + + + + + + + + + + + ",
"+ + + + + + + + + + + + + + + + + + + + + + + + + + + + + + + + + + + + + + + + + + + + + + + + + + + + + + + + + + + + + + + + ",
"+ + + + + + + + + + + + + + + + + + + + + + + + + + + + + + + + + + + + + + + + + + + + + + + + + + + + + + + + + + + + + + + + ",
"+ + + + + + + + + + + + + + + + + + + + + + + + + + + + + + + + + + + + + + + + + + + + + + + + + + + + + + + + + + + + + + + + ",
"+ + + + + + + + + + + + + + + + + + + + + + + + + + + + + + + + + + + + + + + + + + + + + + + + + + + + + + + + + + + + + + + + ",
"+ + + + + + + + + + + + + + + + + + + + + + + + + + + + + + + + + + + + + + + + + + + + + + + + + + + + + + + + + + + + + + + + ",
"+ + + + + + + + + + + + + + + + + + + + + + + + + + + + + + + + + + + + + + + + + + + + + + + + + + + + + + + + + + + + + + + + ",
"+ + + + + + + + + + + + + + + + + + + + + + + + + + + + + + + + + + + + + + + + + + + + + + + + + + + + + + + + + + + + + + + + ",
"+ + + + + + + + + + + + + + + + + + + + + + + + $ % % % % % % % % % % % % % & * = - ; + + + + + + + + + + + + + + + + + + + + + ",
"+ + + + + + + + + + + + + + + + + + + + + + + + > , , , , , , , , , , , , , , , , , , ' ) ! + + + + + + + + + + + + + + + + + + ",
"+ + + + + + + + + + + + + + + + + + + + + + + + ~ , , , , , , , , , , , , , , , , , , , , { ] + + + + + + + + + + + + + + + + + ",
"+ + + + + + + + + + + + + + + + + + + + + + + + ^ , , , , , , , , , , , , , , , , , , , , , / ( + + + + + + + + + + + + + + + + ",
"+ + + + + + + + + + + + + + + + + + + + + + + _ : , , , , , , , , , , , , , , , , , , , , , , < + + + + + + + + + + + + + + + + ",
"+ + + + + + + + + + + + + + + + + + + + + + + [ } } } } } } } } } } } | , , , , , , , , , , , : 1 + + + + + + + + + + + + + + + ",
"+ + + + + + + + + + + + + + + + + + + + + + + + + + + + + + + + + + + + 2 3 4 5 , , , , , , , , 6 + + + + + + + + + + + + + + + ",
"+ + + + + + + + + + + + + + + + + + + + + + + + + + + + + + + + + + + + + + + + 7 8 , , , , , , 9 + + + + + + + + + + + + + + + ",
"+ + + + + + + + + + + + + + + + + + + + + + + + + + + + + + + + + + + + + + + + + 0 , , , , , , a + + + + + + + + + + + + + + + ",
"+ + + + + + + + + + + + + + + + + + + + + + + + + + + + + + + + + + + + + + + + + b , , , , , , ' + + + + + + + + + + + + + + + ",
"+ + + + + + + + + + + + + + + + + + + + + + + + + + + + + + + + + + + + + + + + + _ , , , , , , c + + + + + + + + + + + + + + + ",
"+ + + + + + + + + + + + + + + + d e f g g g g g g g g g g g g c h + + + + + + + + i , , , , , , j + + + + + + + + + + + + + + + ",
"+ + + + + + + + + + + + + + + 2 k , , , , , , , , , , , , , , l + + + + + + + + + m , , , , , , n + + + + + + + + + + + + + + + ",
"+ + + + + + + + + + + + + + + o , , , , , , , , , , , , , , , p + + + + + + + + + q , , , , , , r + + + + + + + + + + + + + + + ",
"+ + + + + + + + + + + + + + + 9 , , , , , , , , , , , , , , , s + + + + + + + + + t , , , , , , u + + + + + + + + + + + + + + + ",
"+ + + + + + + + + + + + + + + v , , , , , , , , , , , , , , w + + + + + + + + + + x , , , , , , y + + + + + + + + + + + + + + + ",
"+ + + + + + + + + + + + + + ( g g g g g g g g g g g g z A B C + + + + + + + + + _ D , , , , , E ! + + + + + + + + + + + + + + + ",
"+ + + + + + + + + + + + + + + + + + + + + + + + + + + + + + + + + + + + + + + + F , , , , , , G + + + + + + + + + + + + + + + + ",
"+ + + + + + + + + + + + + + + + + + + + + + + + + + + + + + + + + + + + + + + C H , , , , , , I + + + + + + + + + + + + + + + + ",
"+ + + + + + + + + + + + + + + + + + + + + + + + + + + + + + + + + + + + + + 2 J , , , , , , H ! + + + + + + + + + + + + + + + + ",
"+ + + + + + + + + + + + + + + + + + + + + + + + + + + + + + + + + + + + + K n , , , , , , , L + + + + + + + + + + + + + + + + + ",
"+ + + + + + + + + + + + + + + + + + + + + + + + + + + + + + + + + M N O P Q , , , , , , , R ! + + + + + + + + + + + + + + + + + ",
"+ + + + + + + + + + + + + + + + + + + + S } } } } } } } } } } } T , , , , , , , , , , , Q ; + + + + + + + + + + + + + + + + + + ",
"+ + + + + + + + + + + + + + + + + + + + U , , , , , , , , , , , , , , , , , , , , , , 8 V + + + + + + + + + + + + + + + + + + + ",
"+ + + + + + + + + + + + + + + + + + + + W , , , , , , , , , , , , , , , , , , , , , Q O + + + + + + + + + + + + + + + + + + + + ",
"+ + + + + + + + + + + + + + + + + + + + X , , , , , , , , , , , , , , , , , , , , a Y + + + + + + + + + + + + + + + + + + + + + ",
"+ + + + + + + + + + + + + + + + + + + + Z , , , , , , , , , , , , , , , , , , { U 2 + + + + + + + + + + + + + + + + + + + + + + ",
"+ + + + + + + + + + + + + + + + + + + _ % % % % % % % % % % % % % ` &  ...+.@.+ + + + + + + + + + + + + + + + + + + + + + + + + ",
"+ + + + + + + + + + + + + + + + + + + + + + + + + + + + + + + + + + + + + + + + + + + + + + + + + + + + + + + + + + + + + + + + ",
"+ + + + + + + + + + + + + + + + + + + + + + + + + + + + + + + + + + + + + + + + + + + + + + + + + + + + + + + + + + + + + + + + ",
"+ + + + + + + + + + + + + + + + + + + + + + + + + + + + + + + + + + + + + + + + + + + + + + + + + + + + + + + + + + + + + + + + ",
"+ + + + + + + + + + + + + + + + + + + + + + + + + + + + + + + + + + + + + + + + + + + + + + + + + + + + + + + + + + + + + + + + ",
"+ + + + + + + + + + + + + + + + + + + + + + + + + + + + + + + + + + + + + + + + + + + + + + + + + + + + + + + + + + + + + + + + ",
"+ + + + + + + + + + + + + + + + + + + + + + + + + + + + + + + + + + + + + + + + + + + + + + + + + + + + + + + + + + + + + + + + ",
"+ + + + + + + + + + + + + + + + + + + + + + + + + + + + + + + + + + + + + + + + + + + + + + + + + + + + + + + + + + + + + + + + ",
"+ + + + + + + + + + + + + + + + + + + + + + + + + + + + + + + + + + + + + + + + + + + + + + + + + + + + + + + + + + + + + + + + ",
"+ + + + + + + + + + + + + + + + + + + + + + + + + + + + + + + + + + + + + + + + + + + + + + + + + + + + + + + + + + + + + + + + ",
"+ + + + + + + + + + + + + + + + + + + + + + + + + + + + + + + + + + + + + + + + + + + + + + + + + + + + + + + + + + + + + + + + ",
"+ + + + + + + + + + + + + + + + + + + + + + + + + + + + + + + + + + + + + + + + + + + + + + + + + + + + + + + + + + + + + + + + ",
"+ + + + + + + + + + + + + + + + + + + + + + + + + + + + + + + + + + + + + + + + + + + + + + + + + + + + + + + + + + + + + + + + ",
". + + + + + + + + + + + + + + + + + + + + + + + + + + + + + + + + + + + + + + + + + + + + + + + + + + + + + + + + + + + + + + + ",
"  + + + + + + + + + + + + + + + + + + + + + + + + + + + + + + + + + + + + + + + + + + + + + + + + + + + + + + + + + + + + + +   ",
"  + + + + + + + + + + + + + + + + + + + + + + + + + + + + + + + + + + + + + + + + + + + + + + + + + + + + + + + + + + + + + +   ",
"    + + + + + + + + + + + + + + + + + + + + + + + + + + + + + + + + + + + + + + + + + + + + + + + + + + + + + + + + + + + +     ",
"      + + + + + + + + + + + + + + + + + + + + + + + + + + + + + + + + + + + + + + + + + + + + + + + + + + + + + + + + + #.      ",
"          + @ + + + + + + + + + + + + + + + + + + + + + + + + + + + + + + + + + + + + + + + + + + + + + + + + + + + #           "};
