/* XPM */
static char * dash32_xpm[] = {
"32 32 62 1",
" 	c None",
".	c #008CE3",
"+	c #3DA8EA",
"@	c #70BFEF",
"#	c #6EBEEF",
"$	c #62B8EE",
"%	c #4CAEEB",
"&	c #1D99E6",
"*	c #B2DCF7",
"=	c #FFFFFF",
"-	c #FEFFFF",
";	c #A0D4F5",
">	c #058EE4",
",	c #E0F1FC",
"'	c #85C8F2",
")	c #219BE7",
"!	c #229BE7",
"~	c #249CE7",
"{	c #3BA7E9",
"]	c #80C6F1",
"^	c #F5FAFE",
"/	c #EBF6FD",
"(	c #74C0F0",
"_	c #068FE4",
":	c #0990E4",
"<	c #51B1EC",
"[	c #66BAEE",
"}	c #65BAEE",
"|	c #018CE3",
"1	c #3AA6E9",
"2	c #078FE4",
"3	c #B6DEF7",
"4	c #D6EDFA",
"5	c #4EAFEC",
"6	c #FBFDFF",
"7	c #048EE3",
"8	c #FDFEFF",
"9	c #79C3F0",
"0	c #7EC5F1",
"a	c #D3EBFA",
"b	c #64B9EE",
"c	c #3EA8EA",
"d	c #CCE8F9",
"e	c #8ECCF3",
"f	c #63B9EE",
"g	c #33A3E9",
"h	c #0C91E4",
"i	c #30A2E8",
"j	c #4FB0EC",
"k	c #A7D7F5",
"l	c #FCFEFF",
"m	c #B0DBF6",
"n	c #DDF0FB",
"o	c #1595E5",
"p	c #A1D5F5",
"q	c #ADDAF6",
"r	c #1796E6",
"s	c #57B3ED",
"t	c #69BBEF",
"u	c #5CB5ED",
"v	c #4AADEB",
"w	c #1997E6",
"                                ",
"  ............................  ",
" .............................. ",
" .............................. ",
" .............................. ",
" .............................. ",
" .............................. ",
" .............................. ",
" .............................. ",
" ...........+@@@@@#$%&......... ",
" ...........*========-;>....... ",
" ...........,=========='....... ",
" ...........)!!!!~{]^==/....... ",
" ...................(===_...... ",
" .......:<[[[[[}|...1===2...... ",
" .......3======4....5==6|...... ",
" ......78======9....0==a....... ",
" ......_[[[[[bc.....d==e....... ",
" ..................f==-g....... ",
" .........h!!!!!ijkl==m........ ",
" .........(==========no........ ",
" .........p=========qr......... ",
" .........s@@@@@tuvw........... ",
" .............................. ",
" .............................. ",
" .............................. ",
" .............................. ",
" .............................. ",
" .............................. ",
" .............................. ",
"  ............................  ",
"                                "};
