/* XPM */
static char * dash16_xpm[] = {
"16 16 35 1",
" 	c None",
".	c #008CE3",
"+	c #008DE3",
"@	c #008CE2",
"#	c #1696E5",
"$	c #1C99E6",
"%	c #1A98E6",
"&	c #0D92E4",
"*	c #E4F3FC",
"=	c #FFFFFF",
"-	c #8ACAF2",
";	c #1194E5",
">	c #2FA1E8",
",	c #DAEEFB",
"'	c #FAFDFE",
")	c #018CE3",
"!	c #82C7F1",
"~	c #AAD9F6",
"{	c #9FD4F4",
"]	c #A5D6F5",
"^	c #FCFEFF",
"/	c #A9D8F6",
"(	c #6BBCEF",
"_	c #D6EDFA",
":	c #D7EDFB",
"<	c #0A91E4",
"[	c #0B91E4",
"}	c #209AE7",
"|	c #78C2F0",
"1	c #0F93E5",
"2	c #C5E5F9",
"3	c #A7D7F5",
"4	c #058EE4",
"5	c #078FE4",
"6	c #1997E6",
" .............+ ",
"................",
"@..............@",
"@..............@",
"@.....#$$%&....@",
"@.....*====-...@",
"@.....;;;>,')..@",
"@...!~~{..]^)..@",
"@..)/~~(.._:<..@",
"@....[;;}!=|1..@",
"@....2====345..@",
"@....6$$6&.....@",
"@..............@",
"@..............@",
"................",
" .............. "};
